<?xml version="1.0" encoding="utf-8"?>
<!-- Generator: Adobe Illustrator 26.0.1, SVG Export Plug-In . SVG Version: 6.00 Build 0)  -->
<svg version="1.1" id="Layer_1" xmlns="http://www.w3.org/2000/svg" xmlns:xlink="http://www.w3.org/1999/xlink" x="0px" y="0px"
	 viewBox="0 0 1000 1000" style="enable-background:new 0 0 1000 1000;" xml:space="preserve">
<style type="text/css">
	.st0{fill:#330000;}
	.st1{fill:#FF9A00;}
</style>
<g id="vlpa">
	<g id="vlpb">
		<g id="vlpc">
			<g id="vlpd">
				<path class="st0" d="M177.08,12.5h645.83c97.92,0,177.08,79.17,177.08,177.08v620.83c0,97.92-79.17,177.08-177.08,177.08H177.08
					C79.17,987.5,0,908.33,0,810.42V189.58C0,91.67,79.17,12.5,177.08,12.5z"/>
			</g>
		</g>
	</g>
	<g id="vlpe">
		<g id="vlpf">
			<path class="st1" d="M483.33,595.83h-155l-31.67,97.92c-0.83,3.75-4.17,6.25-7.92,5.83h-78.33c-4.58,0-5.83-2.5-4.58-7.5
				L340,305.83c1.25-4.17,2.5-8.75,4.17-13.75c1.67-8.75,2.5-17.92,2.5-27.08c-0.42-2.08,1.25-4.17,3.33-4.58h1.25h106.67
				c3.33,0,5,1.25,5.42,3.33l152.08,429.17c1.25,4.58,0,6.67-4.17,6.67h-87.08c-2.92,0.42-5.83-1.67-6.67-4.58L483.33,595.83
				L483.33,595.83z M352.5,511.25h105.83c-2.5-8.75-5.83-19.17-9.58-30c-3.75-11.25-7.5-23.33-11.25-35.83
				c-4.17-12.92-7.92-25.42-12.08-38.33s-7.92-25-11.25-37.08c-3.33-11.67-6.25-22.5-9.17-32.5h-0.83
				c-3.75,17.92-8.33,35.83-14.17,53.75c-6.25,20-12.5,40.83-19.17,61.67C365,474.17,358.75,493.75,352.5,511.25z"/>
			<path class="st1" d="M708.33,333.33c-13.75,0.42-27.08-5-37.08-14.58c-9.58-10.42-14.58-24.17-14.17-38.33
				c-0.42-14.17,5-27.5,15-37.08c10-9.58,23.33-14.58,37.08-14.58c16.25,0,28.75,5,37.92,14.58c9.17,10,14.17,23.33,13.75,37.08
				c0.42,14.17-4.58,27.92-14.58,38.33C736.67,328.75,722.5,334.17,708.33,333.33L708.33,333.33z M661.67,695V374.17
				c0-4.17,1.67-5.83,5.42-5.83h82.5c3.75,0,5.42,2.08,5.42,5.83V695c0,4.58-1.67,6.67-5.42,6.67h-81.67
				C663.75,701.67,661.67,699.17,661.67,695z"/>
		</g>
	</g>
</g>
</svg>
