<?xml version="1.0" encoding="utf-8"?>
<!-- Generator: Adobe Illustrator 26.0.1, SVG Export Plug-In . SVG Version: 6.00 Build 0)  -->
<svg version="1.1" id="Layer_1" xmlns="http://www.w3.org/2000/svg" xmlns:xlink="http://www.w3.org/1999/xlink" x="0px" y="0px"
	 viewBox="0 0 1000 1000" style="enable-background:new 0 0 1000 1000;" xml:space="preserve">
<style type="text/css">
	.st0{fill:#FFFAE6;}
</style>
<circle class="st0" cx="500" cy="500" r="500"/>
<path d="M352,284.1c4.6,0.6,6-2.3,8.7-5.6c6.2-7.3,8.7-16,13.2-23.9c1.5-2.6,6.5-5.6,8.4-4.8c3.2,1.3,5.9,5.2,7.8,8.6
	c3.4,6.3,2.1,12.2-3.1,17.5c-1.7,1.7-1.7,5-2.8,8.5c8.5-8.9,16-17.1,24-24.8c5.7-5.4,11.2-3.8,13.3,3.8c1.5,5.2,0.3,10.2-3.3,15
	c-5.7,7.4-10.5,15.4-15.4,23.3c-0.5,0.9,0.1,2.8,0.7,3.8c0.3,0.4,2.6,0.3,3.2-0.3c7.7-7.7,15.3-15.4,22.7-23.4
	c1.3-1.4,1.6-3.7,2.5-6.1c1.5,0.6,3.4,0.8,3.9,1.7c5.3,10.3,10.8,20.5,15.3,31.2c1.1,2.7-1.2,6.8-1.9,10.4
	c3.6,4.3,12.1,1.9,13.6,9.5c1.1,5.5,2.3,11,3.8,18c7,4.4,8.3,4.2,15-2.8c3.3-3.5,6.8-6.8,10.5-9.9c1.7-1.4,4.1-2.1,6.2-3l2.1,1.6
	c-1.3,3.4-2.2,7.1-4.1,10.1c-2.8,4.6-6.6,8.6-9.5,13.1c-3.9,5.9,2.7,7.7,4.7,11.3c2,3.6,4.4,1.3,6.9,0.3c7.5-3.1,10.8-9.7,13.6-16.3
	c2.6-6.1,6.6-10.3,12.9-13.2c-2.7,14.2-8.3,26.4-17.7,36.9c-1.6,1.7-3.1,5.6-2.2,7c1.8,2.7,5,4.9,8.1,6.1c1,0.4,3.8-3.1,5.2-5.2
	c4.4-6.6,9-13.1,12.7-20c5.1-9.5,8.8-19.8,14.4-28.9c6-9.8,7.6-20.7,10.6-31.2c0.4-1.3,0-2.7,0-4.1c-4.2,5.4-8.2,10.8-12.6,15.8
	c-1.1,1.3-3.9,1.2-6,1.5c-0.7,0.1-1.8-0.8-2.2-0.6c-5.8,4.1-7.8-1.3-11.2-4c-4.6-3.8-7.9-6.9-1.6-12.4c2-1.7,1.8-6.1,2.3-9.3
	c0.6-4.4,0.7-8.9,1.2-13.4c0.2-2,1.3-4,1.2-6c-0.5-9.3-1.6-18.6-3.2-27.8c-1.5,3-3.8,5.8-4.4,9c-2.9,16.1-6.4,32.2-7.3,48.4
	c-0.3,6.4-2.1,8.9-6.7,11.2c-4.8,2.4-8.1-0.4-9-5.7c-3-19.2,4-36.6,8.6-54.4c0.4-1.4,0.3-3,0.7-4.3c1.6-4.7,2.9-9.6,5.1-14.1
	c3.8-7.9,8.9,0.2,13.4-0.7c5.5-6.6,2.6-12.7-3.4-17.8c-4.4-3.7-5.9-6.3-5.1-13.5c1.2-10.5,6.2-12.2,13.9-13.5c2-0.3,3.9-1.4,5.8-2
	l7.4,5.7l6.3-4.8c0.3,6.2,0.6,11.3,0.9,16.4l1.9,0.2c1.6-5.5,8.1-7.6,8.5-14.4c0.3-5-1.5-10-6.6-11.6c-5.1-1.6-10.8-2.3-15.2-4.9
	c-8.1-4.8-15.1-11.2-17.5-21.1c-1.3-5.6,3.5-10.2,9-8.9c18.8,4.4,34.7,13.7,47.1,28.6c7.5,9.1,8.4,20,2.5,29.2
	c2.8,3.8,5.7,7.1,11.4,4.6c1.1-0.5,3.5-0.2,4,0.5c2.2,3.3,4.8,2.6,8.1,2.4c1.9-0.1,5.3,2.9,5.8,5.1c1.1,4.6,0.7,9.5,1,14.3
	c0.2,3,1,6,2.5,8.6c5.7-17.2,3.5-34.8,4.1-51.8c3.4,0.2,6.2,0.5,8.9,0.6c9.4,0.1,14.1,4.9,14.1,14.3c0,1.9-0.3,3.9,0.2,5.6
	c0.4,1.3,1.6,3.2,2.7,3.3c5.3,0.9,10.6,1.2,16.4,1.8c0.8-6.6,1.7-14,2.5-21.5l2.5-0.9c4,4.3,9.4,7.9,11.5,13c3,7.1,8,8.1,14.2,8.5
	c7.6,0.5,10.5,3.3,11.9,10.2c2.8,13.8,5.7,27.7,9.2,41.3c2.3,9,5.7,17.8,8.7,26.9l5.3-3.6l1.8,0.7c-0.8,2.2-1.7,4.4-2.3,6.7
	c-0.5,1.8-1.1,3.8-0.8,5.6c0.5,3.4,2.3,6.8,2.4,10.2c0.1,5.2-5,7.9-9.8,5.9c-5.1-2.1-10.9-3.3-10.9-10.7c0-1.2-1.4-2.5-2.4-3.5
	c-5.7-5.6-11.6-11-17.6-16.7c-3.4,6.4-7.2,4.2-11.4-0.8c-1-1.2-3.7-0.9-6.2-1.4c-1.6-6.8-3.2-14-4.9-21.1
	c-0.8,6.7-1.8,13.2-2.3,19.8c-0.1,1.2,1.4,2.8,2.5,3.8c10.5,10.1,20.8,20.4,31.6,30c12.8,11.3,25.7,22.6,39.3,32.9
	c8.7,6.5,18.8,11.2,28.7,16c-2.8-24.6-8.6-47.5-20.6-69.1c-4.5,3.6-6.5,2.8-9.1-1.8c-5.3-9.3-7.2-19.2-9-29.5
	c-1.9-10.6-5.1-20.9-7.4-31.4c-0.6-2.7-3.6-6.1,1-8.1c4.3-1.8,6.3,0.7,8.1,4.4c2.2,4.7,4.6,9.5,7.9,13.5c1.7,2,5.9,3.8,8.4,3.1
	c7.4-1.9,15.7,3.1,17,10.6c0.7,4.2,2.7,8.2,4.2,12.3c0.2,0.5,1,1.3,1.3,1.2c6-1.3,7.2,4.1,10.9,9c0.5-3.5,1.5-5.7,0.8-7
	c-4.1-8.5-8.5-16.9-13-25.2c-2.3-4.2-4.5-8.5-7.6-12.1c-2.8-3.3-6.5-6.1-10.3-8.3c-5.1-2.9-7.2-9.2-5-14.6c0.9-2.2,1.3-4.5,2.1-7.1
	c1.4,1.2,2.8,3,4.5,3.8c4.7,2,7.9-0.4,9.2-6.9c0.9-4.8,1.2-9.4,8.2-5.9c1,0.5,4-0.7,4.3-1.6c0.4-1.8,0.2-4.3-0.9-5.7
	c-3.2-4.3-6.9-8.2-10.9-12.8l1.1-4.5c6.8,0.3,11.7,3.6,16,8.2c3.4,3.6,7.8,6.8,10.1,11c2.8,5.1,4.9,11.2,5.2,16.9
	c0.3,5.6,2.1,10,4.9,14.3c8.1,12.4,16.3,24.7,24.4,37.1c11.1,17,14.9,36.5,19.3,55.8c1.1,5-0.1,10.5,0.4,15.8
	c0.5,6.3,1.4,12.5,2.8,18.6c1.2,5.2-1.2,8.9-4.1,12.5c-2.8,3.6-13.6,0.8-16.3-4c-4.3-7.9-8.3-15.9-6.5-25.6c0.2-1.2-1.7-3.4-3.1-4.2
	c-2.4-1.3-5.3-1.9-7.9-2.7c-3.1,14.1-6.5,28.3-9.1,42.7c-0.9,5.2,0.4,10.8,0.2,16.1c-0.5,11.6-0.6,11.6-9.3,17.9l-12.2-6.2
	c-0.5-6.1,3.6-13.2-3.7-18.5c2,21.4-8.6,40-11.6,61.1c4.2,2.3,15.5-1.5,10.4,10.5h-8c0.8,9.7,1.6,19.1,2.3,28.4
	c0.4,4.5,0.5,9.1,0.9,13.6c1.2,10.9,2.5,21.8,3.8,32.8c0.1,0.8,0.5,1.6,1,2.3c5.4,7.2,6.9,14.5,0.8,22.7l-3-1.9l-41.2,28.6
	c3.9,2.7,6.5,4.4,9,6.2c1.5,1.1,3.6,2,4.3,3.5c3.3,7.6,6.5,15.3,9.2,23.2c0.9,2.5,0.8,6-0.3,8.4c-3.9,8.3-10,7.6-17.2-0.9
	c-3.5-4.2-7.7-8-12.3-11c-4.7-3.1-5.8,2.1-7.2,4.9c-1.4,2.9-2,6.2-3,9.6c12.8,11.5,14.7,19.2,5.9,30.7l-13.4-17.4
	c-1.3,0.7-5.1,0.4-3.2,5.2c0.3,0.8-1.4,3.1-2.6,3.7c-1,0.5-3.5-0.2-4-1.1c-1.7-3.3-3.2-6.7-4.3-10.2c-0.9-2.7-1.1-5.5-1.5-7.3
	l9.6-10.8l-0.9-0.8l7.6-1.4c-7.5-5.6-12.8-1.7-18.2,0.4c-7,2.7-13.9,5.8-20.9,8.3c-1.3,0.5-3.9-0.4-4.8-1.6
	c-10.1-12.1-22.2-9.1-34.7-5.1c-2,0.6-4.9-0.5-6.9-1.7c-1.8-1.1-2.9-3.4-5.1-6.2c3.6-3,7-6.5,11-9.1s7.9-5.1,13.5-5.4
	c9.8-0.5,17.9-7,26.8-10.8c7-3,14.9-3.9,22.4-5.7c2.2-0.5,4.4-0.9,6.6-1.4c-1.4-12.2-1.2-12.3,12.3-13.2c4.2-0.3,8.3-1.8,12.6-2
	c3.6-0.2,7.2,0.7,10.8,1.2c1.4,0.2,3,1.1,4.1,0.7c6.7-2.5,13.4-5.1,19.8-8.1c1.8-0.8,7.3-0.8,3.2-5.5c-0.1-0.2,0.4-1,0.8-1.5
	c4.8-6.4,5-9.9,0.8-16.9c-1.9-3.2-4.4-6.2-6-9.6c-1.9-4.5-3.5-9.1-4.7-13.8c-2.3-8.3-4.3-16.7-7.9-25.6c-3.4,6.3-7.2,12.5-10,19
	c-3.8,9-7.5,18-14.2,25.4c-1.9,2.1-2,6.1-6.4,5.4c-2.1-0.3-4.3,0.2-6.5,0.4c0.3-2.3,0.6-4.5,0.9-6.7c-1.7,0.1-3.8,0.1-5.9,0.5
	c-1.7,0.4-3.8,0.8-4.9,2c-3.2,3.4-5.8,7.3-9,10.7c-1,1-3.3,1.4-4.9,1.2c-3.6-0.5-7.3-2.4-10.9-2.3c-15.1,0.8-24.6-8.5-33.1-18.6
	c-3.1-3.7-4.6-10.4-3.7-15.2c0.7-3.7,6.2-6.5,9.7-9.7l2.3,1.2v10.2l10.2-2.9c0,0.3,0.3-0.4,0-0.8c-5.4-7.9-10.9-15.8-16.1-23.8
	c-1-1.6-1.3-3.8-1.3-5.7c0.1-7.1,0.3-14.2,0.9-21.3c0.2-3,1.5-5.8,2.5-9.7l4.7,4c1.6-1.5,3.1-2.9,3.6-3.4c8-0.7,15-1.6,22-2
	c9-0.5,18.2-1.7,27-0.5c6.1,0.8,11.9,4.7,17.5,7.8c2.9,1.7,4.8,2.6,7.5-0.3c4.8-5.2,11.3-3.2,17.2-3.1c5.4,0.1,6.7-1.9,5.8-6.8
	c-1.4-7.8,0.3-10.3,7.8-13.1c1.1-0.4,2.4-1.3,2.8-2.3c1.8-5.1,3.3-10.4,4.9-15.6c0.4-1.2,0.4-2.5,0.8-3.6c2.5-7,5.1-13.9,7.4-20
	c-1.4-1.6-1.6-2.2-1.9-2.2c-17.4,0-29.9-10.6-43-20c-7.6-5.5-15.4-10.7-22.7-16.7c-4.7-3.8-8.7-8.5-12.8-13
	c-5-5.5-9.9-11.2-14.8-16.8c-0.6-0.6-0.9-1.6-1.6-1.9c-1.4-0.6-3.3-1.4-4.4-0.9c-0.9,0.5-1.6,2.8-1.4,4.1c1.1,6,2.6,12-1.8,17.4
	c-0.7,0.9-1.7,2-2.7,2.1c-3.1,0.4-12.6-6.4-13.5-9.5c-1.6-5.4-3.4-10.7-4.8-16.2c-1.3-5.1-2-10.4-4.4-16.4c-1.8,2.9-4.5,5.6-5.3,8.9
	c-3.2,11.9-5.2,24.2-13.6,34c-3.3,3.9-6.1,8.1-8.5,12.6c-3.5,6.7-6.3,13.8-9.5,20.6c-3.1,6.6-5.9,13.3-9.5,19.6
	c-2.8,4.9-5.5,9.7-11.1,12.9c-3,1.7-3.9,6.9-6,11l79.4,14.2l0,2.3l-18.5,4.8c-6.2-1.1-15.2-3-24.2-4.4c-3-0.4-6.2,0.7-9.2,0.6
	c-2.8-0.1-5.7-1.8-8.3-1.2c-5.4,1.2-10.6,4.7-16,4.9c-7.7,0.2-11.8,3.1-15.1,9.8c-1,1.9-7.2,4-10.2-0.8c-2.9-4.6-6.6-7.6-11.9-9.9
	c-3.2-1.4-6.1-4.4-10-5c-0.8-0.1-1.6-0.1-2.5,0c-1.2,9.6-2.4,18.9-3.5,28.3c-1,8.1-1.7,16.2-3,24.2c-1.5,8.8-3.6,17.5-5.5,26.2
	c-0.2,1-0.5,2.3-0.1,3c2.9,4.9,5.7,9.8,9.1,14.3c1.4,1.9,4.1,2.9,6.2,4.3l4.1-6.3c0.3-0.5,0.7-1,1.7-2.5c1.9,3,4,5.4,5,8.1
	c1.6,4.7,3.2,9.6,3.5,14.5c0.6,9.7,6.1,16.8,12,23.4c8.7,9.8,17.5,19.2,24,30.9c4,7.1,11.2,12.4,16.8,18.7c4.7,5.3,9.8,4.8,16.6,4.6
	c6.8-0.2,14.8,4.2,20.2,8.9c4.3,3.7,5.5,10.9,7.7,15.8l-13.1,3.8c5.2,5.9,10.4,7.6,16.7,6.6c6.9-1,14.2,3.8,16.7,10.5
	c2.2,6.1,3.5,6.4,7.9,1.9c2.6-2.7,5.6-5,8.5-7.6c7.5,3.2,14.6,6.1,21.9-0.9c2.9-2.8,10.2,2,11.4,6.7c0.4,1.6,1.1,4.4,2.1,4.6
	c11.4,2,13.5,11.9,17.5,20.1c0.6,1.1,0.9,2.7,1.9,3.2c8.6,4.7,6.5,12.9,6.9,20.4c0.1,2.3,0.4,4.8,1.3,6.9c4.6,9.8,2.2,17.1-6.2,24.5
	c-4.8,4.2-9.7,5.6-15.6,6.6c-2.6,0.5-4.9,3.5-7.2,5.4c-2.5,2.1-4.8,4.3-7.4,6.7l-3.9-5c-2.1,1.6-4,3.2-5.9,4.7
	c-7,5.4-13.9,11.2-21.3,16.1c-2.7,1.8-7,2.3-10.3,1.7c-8.8-1.5-15.8,2-23.2,5.7c-8.7,4.4-17.6,9.1-26.9,11.3
	c-7.9,1.9-16.9,2.1-23.4-4c1.3-10.5,2.9-20.7,3.7-30.8c0.2-2.2-2-4.6-3.1-6.9l-1.8,0.1c-1.5,5-2.6,10.1-4.5,14.9
	c-1.2,2.9-4.2,5-5.2,7.9c-1.2,3.3,0.3,7.5-3.5,9.9c1.6,2.4,2.6,5.9,4.8,7.2c14.2,7.9,26,18.6,33.9,32.5c4.1,7.2,5.3,16.2,6.5,24.6
	c0.7,4.8-7.8,8.5-12.9,6c-2.4,3.7-4,9.3-7.3,10.7c-3.2,1.3-8.2-1.7-11.8-2.7c-2.3,5.6-3.9,11.9-7.2,17c-3.2,4.9-7.4,9-12.3,12.1
	c-5.8,3.5-9.2-2.9-12.3-6c-2.1-2.1-3.2-7.2,2.3-9.7c3.6-1.6,6.8-4.4,10.1-6.9c1-0.8,1.8-1.8,2.5-2.9c-2-2.1-3.8-3.1-4.3-4.6
	c-4-11.9-7.9-24-16.7-33.3c-3.2-3.4-8.6-4.6-12.9-7c-1.5-0.9-2.7-2.3-4.1-3.5c1.2-1.2,2.2-2.8,3.7-3.6c6.8-4.2,12.5-2.8,17.6,3.1
	c6.5,7.5,13.3,14.8,17.3,24.1c1.9,4.3,3.4,8.7,5.3,13.8c0.9-1,2.1-2.4,3.4-3.7c2.4-2.2,4.8-6.1,7.4-6.2c9.4-0.6,10.4-9.3,14.9-14.5
	c1-1.2-0.6-6.3-2.5-8c-5.8-5.4-12-10.4-18.5-14.9c-2.7-1.8-6.4-2.5-9.8-2.8c-7.3-0.8-14.3-2.9-18.8-8.7c-2.6-3.4-3.8-8.2-4.3-12.6
	c-0.1-1.3,4.7-4.8,6.5-4.4c9,2.3,6.7-3.8,7-8.1c-7.3-4.4-12.6,1.8-18.7,3.2c-1.4,0.3-2.4,3.2-3,5.2c-2.6,8-5.1,16.1-7.5,24.3
	c-1.4,4.8-2.5,9.7-3.5,14.5c-2.6,13.2-7.4,25.6-15.5,36.3c-2,2.7-6.5,4.4-10.1,4.8c-4.2,0.5-6-4.4-3.2-7.9c3.3-4.2,8.2-7.5,7.9-13.7
	c-0.1-1.9-0.5-4.1-1.6-5.5c-4.8-6.2-4.8-16-1-23c3.5-6.6,5.9-13.8,8.3-20.8c0.5-1.3-0.5-3.6-1.6-4.9c-5.7-6.8-5.7-11.1,0-18.1
	c4.8-5.9,0.2-11.4-0.6-17c-0.3-2.4-0.9-4.9-0.4-7.2c0.9-4.3,1.3-7.4-1.1-12.1c-2.5-4.9-1-12-0.6-18.1c0.4-5.8,1.9-11.5,2.3-17.2
	c0.8-10.1-7.5-14.8-13.2-21.4c0.2,4,2,8.6-3.4,9.6c-4.3,0.8-8.2,0.9-12.5-3.2c-7-6.7-14.1-13.9-23.6-17.5c-1.6-0.6-2.9-2.1-4.8-3.6
	c-0.7,0.9-1.9,1.9-2.3,3.1c-3.3,10.3-10.8,12.1-20,6.3c-8.6-5.4-14-12.2-15.8-22c-0.2-1.2-1-2.7-0.6-3.5c3.2-6.5-0.9-10.8-4.4-15.3
	c-7.5-9.9-9.2-20.4-3.9-31.9c4.8-10.5,7.9-22.2,14.4-31.5c4.9-6.9,5.2-12.7,4.1-19.9c-0.3-2,1.6-4.3,2.5-6.5
	c1.8,1.1,3.5,2.3,5.3,3.4c0.9,0.5,1.9,0.9,2.8,1.2c-0.8-7.2-4-11.8-9-15.7c-4.3,2.5-7.7,5.6-13.7,2.6c-6.2-3-10.4,1.8-11.5,8.9
	c-2.4,15.2-5.8,30.3-21.2,38.4c-3,1.6-6.5,2.5-9.8,3.4c-3.9,1-4.9,3.3-4.1,7.1c2.7,11.7,5.3,23.4,8.1,35c1.6,6.6-1.9,9.7-10.4,8.5
	c-0.6-5.3-0.9-10.8-1.9-16c-1.8-9.7-3.8-19.4-6.1-29c-0.6-2.2-3-4-4.3-6.1c-1.4-2.5-4.1-5.8-3.4-7.6c1.3-3,4.5-4.9,8.9-2.9
	c2.7,1.1,5.7,1.2,8.4,0.2c5.1-2.3,10-5,14.6-8.2c2-1.4,3.2-4,5.7-7.3l-33.9-11.2l-0.6,1.7c4.3,4.8,9.4,7.5,16.1,7.5
	c4,0,4.2,2.5,2.1,5.5c-3,4.4-7.3,5.6-11.9,3.8c-14.1-5.5-26.9-13.3-37.2-24.3c-6-6.4-10.6-14.1-16.6-21.1c1.3,5.6,3.1,11.2,3.9,16.9
	c1.2,8,1.3,16.2,2.7,24.2c1.5,8.9-2.3,16.4-4.6,24.5c-2.3,8-3.1,16.3-4.6,24.5c-1.1,6-1.3,12-3.6,18c-3,7.9-3.9,16.7-6.1,24.9
	c-1.4,5.1,0.8,7.7,4.7,10.2c3.2,2.1,6,5,8.9,7.7c1.8,1.7,3.2,3.8,5.1,5.4c5.1,4.3,4.9,6.2-0.6,9.8c-3.9,2.5-7.4,5.5-11.2,8
	c-0.9,0.6-2.3,0.4-3.4,0.5c-5.9,0.4-10.3,6.4-8.7,11.6c5.6,18.6,11.1,37.1,16.6,55.7c3.1,10.6,7.9,21.1,8.5,31.9
	c0.6,11.9,7.1,21.3,9.8,32.1c2,8,9,10.9,15.1,14.9c3,1.9,7.3,3.7,8.2,6.5c2.2,6.8,2.9,14.1,4,21.1c0.2,1-0.9,2.2-1.4,3.3
	c-8.4-1-12.1-7.5-16.7-12.9c-3.8-4.6-7.7-8.8-5.1-15.9c0.8-2.2-2-6.1-3.8-8.9c-4.7-7.3-9.5-14.6-14.6-21.7
	c-14.4-19.9-20.1-42.9-25.2-66.4c-2.3-10.8-8.2-20.8-12.3-31.2c-0.7-1.8-1.5-4-1.3-5.8c0.5-5.1-2.5-7.7-6.2-10
	c-0.8-0.5-2.5-1-2.9-0.6c-3.6,4.2-11.2,4.8-11.4,12c-0.1,2.2,0.2,5.8,1.3,6.3c6.6,2.9,6.9,8.9,9.2,14.4c1.7,4.2,0.4,6.2-1.6,8.7
	c-4.4,5.3-7.4,4.3-12.3-0.5c-7.1-6.9-10.7-15-11.7-24.6c-0.1-0.8-0.4-1.6-0.7-2.4c-0.1-0.3-0.6-0.5-0.9-0.8
	c-6.8-0.9-10.4,10.4-19.9,4c5.4-4.9,10.4-9.4,15.4-13.8c10-8.6,20.1-17.1,29.9-25.9c1.2-1.1,1.1-3.8,1.4-5.7c0.2-1-0.6-2.2-0.3-3
	c2.9-8.5,0.3-16.2-3.9-24.4l14.9-7.6l10.8,16l2,0.1c1.6-7.9,3.3-15.8,4.9-23.6c0.3-1.6,0.8-3.2,1.2-4.8c0.6-2.4,1.5-4.8,1.6-7.3
	c0.4-7.7,1.5-15.5,0.5-23c-1.5-11.3,2.2-22,2.4-33c0.1-9.7-3-19.3-4-29c-0.8-8.3-0.8-16.8-0.9-25.2c0-1,1.9-3,2.6-2.9
	c1.6,0.3,3.7,1.3,4.4,2.6c1.6,3.1,2.5,6.5,3.9,10.5l8.9-0.9c0-1,0.3-1.8,0-2.1c-8.1-8.7-15.8-17.8-24.5-25.7
	c-5.6-5-5.6-11.6-7.9-17.6c-0.5-1.4,2.6-4.2,4.9-7.6l8.1,11.9c2.1-2.1,4.1-4.2,6.2-6.1c1-0.9,2.2-2.2,3.4-2.3c5.6-0.5,6-4.3,5.8-8.6
	c-0.2-2.9-0.4-6-1.3-8.7s-0.6-6.5-5.7-6.9c-1.6-0.1-3.6-4.9-3.9-7.7c-0.6-5.7-1.9-9-8.9-7.7c-5.6,1-13.3-5.2-16-12.1
	c-2-5.2-3.6-10.5-5.1-15.2c-2.9,0.6-6.9,2.6-8.3,1.4c-2.2-1.8-3.4-5.7-3.6-8.8c-0.4-5.9,0.3-11.8,0.2-17.7
	c-0.1-17.3-1-34.7-0.2-51.9c0.7-14,2.1-28.3,5.5-41.9c3.3-13.4,9-26.3,14.7-39c3.5-7.9,9-14.9,13.7-22.3c1.9-3,4.2-5.8,5.8-9
	c2.4-4.7,5.7-4.7,10.6-2.3l-20.1,37.3l2.5,1.4c2.1-3.6,4.2-7.4,6.4-11c6.1-9.9,12.4-19.7,18.2-29.8c3.6-6.4,8.5-11.2,14.5-15.2
	c8.9-6,12.2-16.1,15.8-25.2c4.4-11.2,11.3-20.1,19-29c10.6-12.4,22.4-23.4,35.1-33.5c5.2-4.1,11.4-6.8,17-10.3
	c4.6-2.9,8.9-6.6,13.8-8.7c6.9-3,14.2-5.3,21.4-7.2c1.4-0.4,3.5,2.3,5.7,2.8c2.3,1.2,4.6,2.2,6.7,3.6c1.3,0.9,2.2,3.1,3.4,3.2
	c6.5,0.8,6.8,4.8,6.1,10c-0.4,3.2-1,6.6,3.5,8.2c4.6,1.7,7.5-0.7,10.2-3.4c4.7-4.7,10.3-8.3,16.5-10.6c3.8-1.4,7.6-2.9,11.4-4.3
	c-0.1-0.6-0.2-1.2-0.3-1.8c-4.2,0.2-8.4,0.1-12.6,0.7c-3.8,0.6-6.7,0.8-8.8-3.6c-0.7-1.5-4.3-1.7-6.6-2.6c-3.1-1.2-6.7-2-9.2-4
	c-0.9-0.8,0.6-4.8,1.4-7.2c0.2-0.8,1.6-1.6,2.5-1.7c18.9-1.4,37.6-3.9,56.7,0.1c11.6,2.5,23.7,2.3,35.5,3.8
	c3.8,0.5,7.2,3.4,11.1,4.3c17.7,3.9,32.6,14.9,50.2,18.9c3,0.7,5.8,2.1,8.1,4.1c5.4,5-1.6,5-3.9,7.9c2.1,0.6,4,0.9,5.6,1.8
	c5.6,3.2,11.1,6.6,16.7,9.9c0.2,0.1,0.3,0.3,0.4,0.5c0.6,2.5,0.5,6.7,1.9,7.3c4.8,2.1,10.2,2.9,15.3,4.2l1.1-1.7
	c-2.9-4-6.4-7.6-8.3-12c-1.5-3.6-1.8-7.5-1-11.3c0.7-2.7,4.1-3.5,7.4-1.4c15.5,10,30,20.8,42,35.3c10.4,12.5,17.2,26.5,22.9,41.4
	c1.7,4.4-1.1,14.7-4.8,17.5c-3,2.3-6.9,0.7-8.4-3.2c-4-10.3-7.5-20.9-12.5-30.8c-2.7-5.3-7.8-9.5-12.1-13.9
	c-2.4-2.5-4.4-1.4-4.7,1.7c-0.6,6.3-4.2,6.3-9.3,5.9c-14.2-1.1-28.5-1.9-42.8-2.4c-10.1-0.4-16.4-5.2-16.1-14.5
	c0.2-4.9,2.9-9.6,5-16c-7.6,1.4-14.5,2.8-21.5,3.8c-3.6,0.6-7.4,0.3-11,0.8c-16.2,2-30.8,9.6-46.4,13.9c-5.4,1.5-11,1.9-16.4,3.1
	c-3.1,0.7-6.1,2-8.2,2.7c-2.4-4.6-4.1-7.9-5.8-11.1c-1.6-2.9,2-10.7,6.9-13.1c5.8-2.8,12.3-4.1,17.8-7.1c7.7-4.3,14.9-9.6,22.2-16
	c-5.5,0-11.1-0.6-16.5,0.1c-11.5,1.5-23,2.8-34.1,5.9c-7.2,2-13.5,7-20.2,10.6c-4,2.1-5,5.3-3.3,9.4c1.8,4.6,1.5,8.6-4.7,12.3
	l-15-16.7c-5.2,1.8-11.6,2.9-16.8,6.1c-5.3,3.3-9.4,8.5-14.1,12.9c-6.1,5.6-12.3,11.1-18.5,16.7c-7.2,6.6-14.4,13.1-22.1,20.1l8.1,5
	c-8.1,2.1-9,8-9.4,14.1l0.2-0.2c-3.8,0-7.8-0.6-11.4,0.2c-4,0.9-5.9-0.5-7.5-3.7c-3.8-7.7-1.8-15.2,2.2-21.6
	c5.9-9.6,11.4-19.9,21.7-25.9c0.7-0.4,1.4-1,1.8-1.7c3.5-6.6,6.9-13.3,10-20.6c-9,8.7-17.9,17.4-26.9,26.1c-0.7,0.7-1.8,1.9-1.6,2.5
	c2.5,7.7-4,8.9-8.2,11.8c-2.1,1.4-3.5,2.1-4.2,5.6c-0.7,3.6-5.8,7-9.8,8.9c-3.6,1.7-9,5.3-12.1-4l-19.4,31.8l20.6-1.7
	c2.2,2.9,7,6.9,8.7,12c0.9,2.9-2.6,7.9-5.2,11.1c-4.3,5.3-10.4,9.4-14.1,15c-5.6,8.4-10,17.7-14.6,26.8c-1.6,3.2-2.2,6.8-3.3,10.2
	l2.5,1.5c3.3-3.9,6.9-7.6,9.9-11.7c4.6-6.5,8.9-13.2,13.2-19.9c1.4-2.3,2.3-5,3.9-7c1.3-1.6,3.3-2.5,5.1-3.7
	c0.5,1.6,1.6,3.3,1.4,4.9c-0.4,3.9,3,6.8,1.3,11.4c-4.5,12.5-7.8,25.4-11.4,38.2c-0.5,1.8-0.4,3.7-0.5,5.6c-1.3,1.2-3,2.1-4,3.6
	c-3,4.7-5.6,9.7-8.6,14.4c-3.3,5.3-6.7,10.5-10.2,15.9h-5.2c0.2-0.5,0.3-1,0.5-1.4c-2.4-1.2-5-3.5-7.2-3.2c-2.7,0.3-5.7,2.4-7.4,4.6
	c-1.9,2.3-2.5,5.6-3.8,8.9c8.3,6,7.7,15.6,7.2,24.6c-0.7,11.7-2.7,23.3-3.8,35c-0.3,3,0.5,6.1,0.7,9.2c6.5-18,15.5-34,25.9-49
	c2.4,1.3,4.2,2.4,6.1,3.2c7.5,3.1,10.1,7.6,9,15.6c-0.2,1.2-0.2,2.5,0.2,3.6c2.8,7.9-0.6,14.9-2.8,22.1c-1.9,5.9-3.7,11.8-5.6,17.8
	c8.6-5.7,16.8-11.9,24.6-18.6c2.7-2.3,5-5,6.8-8c1.7-2.7,2.5-6,3.8-9.5l6.1,3.9c-0.1-0.6-0.2-1.3-0.2-1.9l11.4-4.2
	c0.5-2.5,1.3-5.9,2.3-10.8l1.3,4.7c1.9-3.3,3.5-7,2.4-9.6c-3.8-9.1-10.8-16.7-12-27c0-0.2-0.7-0.4-2.1-1.2c-4,6.3-8.7,12.4-12,19.1
	c-1.7,3.6-2.4,7.4-7.1,7.1c-3.3-0.2-8.2-0.5-9.4-2.6c-3.7-6.6-10-7.3-16.1-9c-0.4-6-1.1-12.1-1-18.1c0-3.9,0.5-8.1,2-11.7
	C347.7,302.8,352.1,294.2,352,284.1z M516.3,549.3c-3,4.5-3.5,9.3-1.5,14.3c0.7,1.7,1.8,3.5,1.9,5.2c0.4,17,1,34.1,0.7,51.1
	c0,3.4,0.9,5.3,2.5,8c2.8,4.8,4.6,10.3,1.6,16.1c-2.4,4.5-2.4,8.4,4,10.3c0.4-6.2,1.1-12.2,1.2-18.1c0.3-15.8-5.9-31.1-3.3-47.1
	c0.1-0.8-0.5-1.6-0.6-2.4c-0.5-3.3-1-6.6-1.2-9.9c-0.5-7.7-0.8-15.4-1.2-23.2c-0.1-2.7-0.5-5.2-4.3-4.2c-0.1-3.3,1.4-7.3-3.2-9.2
	C510.1,545.8,511.2,548.3,516.3,549.3L516.3,549.3z M481.9,398.5c2.5,7.2,9.7,12.2,8.2,21.2l2.2,0.3l10.8-14.2l-0.5-2.5l-20.7-4.6
	c-5.8-3.1-11.5-6.6-17.6-9.3c-2-0.9-5-0.4-7.3,0.3c-2.6,0.8-4.9,2.6-8,4.3c0.8,3.5,1.5,8.7,3.3,13.5c2.1,5.6,5.7,10.6,7.8,16.2
	c2.1,5.4,2.8,11.1-0.9,16.6c-1.3,2-2.5,4.4-2.6,6.7c-0.3,7.5-0.1,15.1-0.1,23.2l5.2-1.2c0.4,4.2,0.8,8,1.2,11.8
	c1.4-0.9,1.6-1.7,1.7-2.5c1.1-13.9,2.3-27.8,3.4-41.8c0.4-5.6,0.5-11.1,0.7-16.7c0.1-4.2,0.1-8.5,0.1-12.7c-0.1-7,6.4-5.2,9.9-7.3
	C479.5,399.3,480.7,399,481.9,398.5z M647.3,437.1c-0.6,3.2-1.9,6.3-1.6,9.2c0.9,8.3,1.6,16.8,3.9,24.7c2.5,8.7,6.6,17,10.5,25.2
	c1,2.1,3.9,3.8,6.2,4.6c6.4,2,12.9,3.4,19.4,4.8c4,0.9,7.6,0.8,10.6-3c3.8-4.7,8-9.3,12.8-13c2.9-2.3,4.7-4.4,5.3-8
	c0.8-4.7,2.5-9.2,3.1-13.9c0.6-4.9,0.4-9.9-5.2-12.6c-5.1,8.1-10.1,15.4-21.2,11.8c-1.2-0.4-3.1,1.2-4.6,2c-1.5,0.8-3.3,2.9-4.5,2.5
	c-5.2-1.5-10.3-3.6-15.4-5.5c0-4.6-0.1-9.4,0.1-14.1c0.1-2,0.1-5.3,1.2-5.7c2.4-1,6-1.8,8-0.7c7.5,4.2,15,2.2,22.7,0.9
	c-4.8-2.3-9.8-3.2-14.8-4.4c-6.1-1.5-12.2-3.5-17.9,1c-0.2,0.2-0.8,0-1.1-0.2C659.1,441.1,653.4,439.2,647.3,437.1z M396.3,389.8
	c1,4.4,1.5,9,3.1,13.1c2.5,6.3,6.4,12.1,8.7,18.5c4.1,10.9,7.2,22.2,11.1,33.2c1.4,4,2.6,10.1,9.4,5c0.5-0.3,1.7,0.5,2.6,0.7
	c4.4,1,14.3-5.1,15.5-9.4c0.2-0.8,0.6-1.8,0.3-2.4c-2.3-5.6-3.9-11.6-7.2-16.5c-8-11.8-13.2-24.9-17.2-38.3
	c-1.6-5.1-1.6-11.2-0.6-16.5c1.3-7.5,4.2-14.8,6.5-22.9c-4.5,1-8.8,3-12.9,2.7c-6.2-0.3-6.6,3.6-6.4,7.5c0.1,4.4,0.9,8.7,2.5,12.8
	c1.7,4.4,5.3,8.2,6.8,12.6c0.7,2.2-1.4,5.3-2.3,8c-2.4-0.8-6.1-0.8-6.9-2.4C406.4,389.9,402.4,388.5,396.3,389.8L396.3,389.8z
	 M417.3,598.8c1.3,2.2,2.4,4.2,3.6,6.2c1.1-0.7,2.8-1.2,3.3-2.3c7-13.6,13.9-27.3,20.8-41c0.8-1.6,1.4-3.5,2.5-4.9
	c2.2-2.8,3.3-5.2-0.2-8c-3-2.4-4.8-2.1-8.6,0c-4.5,2.5-4.8,5.7-6.1,9.5c-1.7,5-4.2,9.7-6.1,14.7
	C423.5,581.4,420.6,589.8,417.3,598.8L417.3,598.8z M581,618.9l1.3-0.5c-2.3-3.6-4.5-7.4-7.1-10.9c-0.9-1.3-2.7-1.9-4.1-2.8
	c-0.6,1.6-1.8,3.2-1.6,4.6c0.6,5.3,1.9,10.6,2.5,15.9c2.6,21.5,5,43.1,7.5,64.6l2.9-0.1c0-3.6,0.1-7.2,0-10.8
	c-0.4-8.5-2.5-17.3-0.9-25.4c1.6-8-0.3-15.3-0.5-22.9C581,626.7,581,622.8,581,618.9L581,618.9z M598.8,770.7
	c7.8-2,14.4-3.4,20.9-5.5c1.5-0.5,3.5-3.5,3.2-4.8c-0.9-3.5,0.2-8.6-5.4-9.5c-6.7-1.1-13.5-2.1-21.7-3.4
	C596.8,754.8,597.8,762.2,598.8,770.7L598.8,770.7z M447.6,501.6c0.2-0.5,0.4-2.8,1.6-4.2c5.7-6.8,7.3-13.2-0.2-18.4l-24.4,3.3
	c1.5,7.9,3,9.1,11.7,12.4C440.1,496.1,443.5,499,447.6,501.6z M671.4,662.1c4.7,7.2-4.8,9.3-7.6,15.8c3.5,1,6.6,2,9.7,2.8
	c8.2,2,11,6.4,9,14.3c-1.9,7.6,0,10.5,8.4,12.6c2.9-13.3-7.5-23.7-8.5-36.3C682.1,667.9,675.3,665.1,671.4,662.1L671.4,662.1z
	 M602.6,653.7c10.7-1.2,18.9,2,26.1,10c1.2-9.4,6.5-2,10-3c0.8-3.9-0.8-5.6-4.3-7.1c-10.4-4.4-22.7-4.6-31.1-13.7
	c-0.2-0.3-1.2,0.1-2.5,0.3C601.4,644.7,602,649.2,602.6,653.7L602.6,653.7z M346.1,502.7c3.9-9.5,8-17.1,6.8-26.1
	c-0.3-2-2-3.8-3.1-5.6c-1.4,1.7-3.4,3.1-4,5c-1,3.6-1.2,7.6-1.7,10.5l-10.1,2.7L346.1,502.7z M491.6,525.4
	c-7.3,10.2-10.4,20.6-10.8,33.1C494.7,549.9,498.2,539,491.6,525.4L491.6,525.4z M446.5,377.5c4.5-5.3,8.3-9.5,11.7-14.1
	c0.7-1,0.3-4.3-0.4-4.7c-4-1.8-8.2-3.1-12.4-4.3c-4.3-1.3-5.3,1.6-6.2,5.3l4.7,0.8C444.7,366.1,445.5,371.2,446.5,377.5z M483,494.2
	c-3.7-0.6-6.9-1-10.2-1.7s-4.8,0.2-4.5,3.8c0.2,3,0.2,6.1,0.4,9.2c0.3,4.1,2.3,5.2,6.4,3.9C482.2,507.1,484.4,503.2,483,494.2z
	 M278.9,674.9l2.4,0.9c3.9-2.6,8-5,11.8-7.8c1.4-1,2.2-2.9,3.2-4.4c-1.8-1.2-3.6-3.6-5.2-3.4c-3.9,0.4-9,0.9-11.1,3.4
	C277.9,666,279.1,671,278.9,674.9z M443.8,604.3c-2,7-3.6,12.6-5.3,18.6l5.4,2.6c0.4-2.8,0.8-5,1.2-7.8l5.2,11.5l1.7-0.3
	c0-5.3,0.7-10.8-0.3-16C451,610.4,447.4,608.3,443.8,604.3z M712,715.5l11.3-1.5c-4.3-6.9-8.4-13.6-12.5-20.2l-1.8,0.6
	C709.9,701.5,710.9,708.6,712,715.5L712,715.5z M281.9,291.8c-10.2,10.5,3,15.9,3.2,23.8c0,0.7,1.9,1.4,4.3,3
	C288,308.3,286.8,299.8,281.9,291.8z M686.7,244.7c-6.2,6.2-3.7,13,7.8,23.6C691.8,259.9,689.4,252.8,686.7,244.7z M556.9,739.3
	c-0.4-4.5-1.9-6.2-6.1-5.7c-4.5,0.6-7.9,2.4-9.4,6.7c-0.2,0.5,2.3,2.8,3.2,2.6C548.6,742.2,552.5,740.7,556.9,739.3z M545.6,600.2
	l2.1-0.7c-0.5-7.9-1.2-15.8-6.4-22.3l-2.1,0.6L545.6,600.2z M455.3,538.2c6.5-5.9,6.5-5.9,0.5-12.4
	C450.7,529.1,450.6,530.3,455.3,538.2L455.3,538.2z M439.8,645.4l3.9-4.3c-2.4-2.1-4.7-4.2-7.3-6.1c-0.2-0.1-3,2.6-2.9,2.8
	C435.2,640.2,437.2,642.4,439.8,645.4L439.8,645.4z M474.7,640.7l2.1-0.6c-0.3-8.4-3.4-16.5-7-16.7L474.7,640.7z M395.6,437l-2-0.3
	c-5.1,6.3-5.6,10.3-0.5,13.7C394,445.6,394.8,441.3,395.6,437z M377.9,511.2c-6.3-8.6-7.5-8.8-14.2-2.5L377.9,511.2z M401.6,486.8
	c0.2,0.8,0.4,1.6,0.7,2.4l8.8-2.2l-6.8-7.3C403.2,482.5,402.4,484.6,401.6,486.8z M564.5,706.7c-4.8,2.8-4.7,6.1-1.7,10.3
	C567.5,714.1,568.9,711,564.5,706.7L564.5,706.7z M326.2,441.8c5.7-0.7,6-3.9,4.8-8.6C326.6,434.8,323.2,436.4,326.2,441.8z
	 M433.8,340.7l1.2,1.4l6.8-0.6c-0.5-2.6-0.8-4.6-1.5-8.2L433.8,340.7z M757.6,295.6l1.4-1.7c-0.6-4.2-2.8-6.3-9.3-5.2L757.6,295.6z"
	/>
<path d="M175.7,567c-3.9,1.1-6.9,1.9-9.8,2.8c-3.1,1-6.2,2-9,2.9c-0.8,3.2-0.6,7-2.4,8.6c-2,1.8-6.6,3.2-8.7,2.2
	c-5-2.5-9.4-5.8-13.1-10c-9.6-11-9.1-24.9-9.5-38.4c-0.1-2.6-0.7-5.2-1-7.9c-0.2-1.6-0.6-3.4-0.2-4.9c3.1-12.4,6.5-24.8,9.7-37.2
	c0.3-1.3,0.5-3.2-0.1-4.2c-7.9-11.2-3-21.5,2.5-31.5c1.5-2.8,4.6-4.7,6.7-7.3c2.5-3,5.7-5.9,6.9-9.4c2.3-6.5,6.7-8.3,12.9-8
	c1.8,0.1,3.9,0.2,5.5-0.5c7.6-3.5,14.9-7.5,22.5-11.1c8.3-3.8,16.6-7.5,25-11c8.6-3.5,17.3-7.1,26.2-9.8c2.7-0.8,7,0.2,9.2,2
	c2.5,2.1,2.9,5.6-0.9,8.5c-4.9,3.8-9.2,8.3-13.7,13.4l13.2-5.1l6.8,23.7l2.7,0.5c1.7-3.5,2.7-7.7,5.2-10.4c2.6-2.9,6.7-4.5,10.2-6.5
	c3.4-2,6.2-1.4,8.2,2.8l-6.6,3.1l1.1,1c-1.6,2.4-3.1,4.9-4.6,7.3c-2.4,3.8-8.7,7.5,0,11.5c1,0.4,1.6,4.4,1,4.9
	c-1.8,1.3-4.5,2.7-6.6,2.3c-7.2-1.3-13.9-3.9-17.3-11.3c-1.9-4.2-4.4-3.5-7.4-1.1c-2.6,2.1-5.3,3.9-8.1,6c2.9,2.6,4.7,4.5,6.8,6.1
	c4,3.1,8.1,5.6,13.1,1.6c1.4-1.1,3.6-1,5.8-0.8c-3.9,4.2-7.8,7.1-9.1,13.3c-0.9,4.4-6.9,7.6-9.9,11.8c-7.5,10.5-15.2,20.9-21.8,32
	c-3,5-3.4,11.6-5.4,17.3c-1.6,4.5-3.7,8.9-5.5,13.3c-5.2,12.7-10.6,25.4-15.4,38.3c-1.4,3.9-3.2,7.5-7.1,7.1
	c-7.1-0.6-10.8-6.1-9.4-12.2C174.7,571.2,175.1,569.6,175.7,567z M180.3,437.9c-6.3,3.2-11.8,5.7-17,8.6c-7.1,3.9-7.3,10.2-0.6,15.2
	c0.8,0.6,1.7,1.9,1.7,2.9c-0.1,7.9-0.6,15.7-0.6,23.6c0,3.6-0.5,9.1,1.6,10.7c4.8,3.5,6.2,7.7,6.8,13c0.1,1,0.3,2.2,1,2.9
	c5.8,6.2,11.8,12.3,18.7,19.6c9.1-16.2,17.3-30.6,25.4-45.1c-2.9,0.3-5,1.6-7.2,2.9c-7.1,4.4-17.2,1.5-17.5-5.6
	c-0.2-6.3-3.7-10.3-6.4-15c-1.4-2.5-3.8-4.6-4.4-7.2c-1.6-7.4-9.2-14.6-1-22.5C181.2,441.4,180.6,439.9,180.3,437.9L180.3,437.9z"/>
<path d="M399.8,182.5c8-7.9,16-15.8,24.1-23.6c7.9-7.6,15.6-15.4,23.8-22.7c6.9-6.2,14.4-11.8,21.8-17.9c3.7,2.9,7.4,4.6,9.2,7.5
	c2.7,4.3-0.6,12.5-5.3,15.2c-1.4,0.8-3.2,1.2-4.5,2.3c-1.5,1.2-2.7,3-4,4.5c1.6,1.1,3.1,2.7,4.9,3.2c5.5,1.7,6.7,5.2,3,10
	c-2.2,2.8-4.8,5.2-6.8,8.1c-1,1.5-0.9,3.6-1.3,5.5l2.2,0.5c0.6-1.2,1.3-2.3,1.9-3.5c0.6-1.1,1-2.2,1.9-3.9l10.4,4.6
	c0.3,10.3-5.8,16.9-11,24.1c-7.1,9.7-13.8,19.8-20.7,29.7c-0.5,0.7-1,1.4-1.4,2.1c-0.8,1.6-1.6,3.3-2.3,5c2.1-0.3,4.9,0.2,6.1-1
	c10-10.7,19.7-21.6,29.3-32.6c0.7-0.8,0.6-2.4,1.1-3.5c1.8-4.1,4.2-6.2,8.6-2.9c0.9,0.7,1.9,1.2,3,1.3c6.7,0.3,9.3,4,7.2,10.1
	c-0.6,1.8-1.1,3.6-2.1,5.2c-2.5,4.1-5.2,7.6,2.6,9.3c1.2,0.3,2.2,6.6,1.6,9.8c-3.1,14.9-14.2,25.3-21.9,37.7
	c-2.4,3.8-3.8,6.5-0.1,8.6c-0.4,3.6-0.7,6.5-1,9.4c-1.9,2.2-3.9,5.3-6.6,7.4c-5.4,4.2-7.8,2.9-10.5-3.3c-3.7-8.5-5.8-16.8-2.4-26.3
	c-5.1,0-10.7,1.6-13.5-0.4c-3.1-2.2-3.7-7.9-6.3-14.5c-3.2,4.1-5.7,8-8.9,11.1c-1.5,1.4-4.8,2.1-6.6,1.5c-1.8-0.6-3.4-3.3-3.9-5.4
	c-1.9-8.7-1-17.1,5.1-24.5l-1.4-1.2c-1.1,0.7-2.3,1.3-3.3,2.1c-2.3,1.7-4.6,4.6-6.9,4.7c-1.7,0.1-4.3-3.3-5.2-5.6
	c-1.3-3.2-1.4-6.8-2.2-11.9c-4.6,2-8.7,3.4-12.4,5.6c-4.3,2.6-9.8,0.1-9.3-5.7c0.6-7.5,2.7-15,5.4-22.1c1.9-4.9,5.8-9.1,8.8-13.6
	L399.8,182.5z M425.9,226.2l2.6,0.6c1.9-2.9,3.7-5.9,5.8-8.7c8-10.6,15.6-21.5,24.4-31.5c4.6-5.2,6.2-7.5,3.2-13.4
	c-4.1,3.6-9.1,6.7-12.6,11.2c-7,9-13.5,18.4-19.5,28.1C427.4,216.4,427.1,221.6,425.9,226.2L425.9,226.2z M406.4,201.5l1.8,2
	c7.3-4.8,15.8-7.8,20.8-15.9c4.6-7.5,9.8-14.6,14.8-21.9l-2.3-1.8L406.4,201.5z"/>
<path d="M469.1,877.2c-1.4-8.7,5-10.4,10.2-12.6c3.5-1.5,5.1,1.2,5,4.3c-0.2,3.9,0.7,6.2,5,7.2c4,0.9,4.3,5.2,0.7,7.4
	c-2.4,1.4-5.3,1.9-8.6,3.1c-2.6,5.5,7,14.5-4,17.5c-2.9,0.2-5.7,0.5-8.6,0.4c-3.1-0.2-6.6,0.1-9-1.4c-11.9-7.2-23.6-14.8-35.2-22.6
	c-3.6-2.4-6.2-2.8-9.2,1.3c2.7,7.6,6.5,15.3,7.8,23.4c1.5,8.8,0.3,18,0.9,26.9c0.5,7-1.4,13.6-2.1,20.4c-0.4,3.2-3.3,6.1-4.9,8.8
	c-7,0-8.7-5.1-10.7-9.6c-2-4.5-5.2-8-3.7-14.2c1.8-7.5,1.3-15.8,0.7-23.7c-0.3-4.1-3.3-7.9-4.4-12c-1.3-4.8-2.4-9.8-2.3-14.6
	c0.1-2.7,2.2-6,4.4-8c5.3-5.1,9-8.5-0.3-14.6c-11.5-7.4-21.8-16.5-32.5-25c-9.1-7.2-18.4-14.1-26.9-21.9c-6-5.5-11.2-12-16.1-18.5
	c-1.7-2.2-2.2-6,2.3-7.6c1.4-0.5,2-2.8,3.2-3.8c2.1-1.8,4.2-4.1,6.6-4.6c1.6-0.3,4.3,2,5.5,3.8c5.2,7.9,9.5,16.6,17,22.8
	c6.5,5.3,13.2,10.5,19.9,15.7c0.6,0.5,1.9,0.5,2.2,1.1c4.5,7.6,12.2,11.3,19.3,15.8c11.6,7.4,23.2,14.9,34.7,22.5
	c5.5,3.6,11.2,7.1,16.5,11.1c2.5,1.9,3.7,3.8,7.3,1.3C461.6,876,465.3,877.2,469.1,877.2z"/>
<path d="M642.3,374c6.3-7.1,8.1-7.3,15.5-2.6c0.8,0.5,2,0.6,3,0.8c5.6,1,11.7,3.9,16.7,2.5c8.7-2.3,16.8-0.2,24.9,0.9
	c8.9,1.1,17.7,4.1,26.4,6.5c0.8,0.2,2.1,2.2,1.8,2.7c-0.6,1.1-1.8,2.4-3,2.7c-5.4,1.4-10.9,2.4-16.7,3.7c0.8,5.4,5.4,6.8,9.5,8.2
	c3.9,1.3,8.2,2.3,6.8,7.5c-1.9,7-5.9,8.5-12.1,5.7c-7-3.1-13.5-6.2-17.6-13.9c-4.2-7.8-10.7-6.7-17.7-1.1
	c-9.1,7.3-18.8,14.8-31.8,12.3c-2.3-0.4-4.2-2.8-6.2-4.3c1.8-1.6,3.3-3.8,5.4-4.5c7.3-2.5,9.2-9.2,3.8-14.6
	c-1.9-1.9-4.4-3.2-5.9-5.2C643.7,379.3,643.3,376.6,642.3,374z"/>
<path d="M691.7,185c-12.4-2.5-23.4-4.2-34.1-7c-9.2-2.4-17.9-6.3-27-9.2c-3.6-1.1-4.5-3.1-4.2-6.5s0.1-6.7,0.7-9.9
	c0.2-1.2,2.1-3,3.2-3c4.9-0.1,9.9-0.3,14.7,0.6c12.5,2.4,24.9,6,37.5,7.9c8.1,1.2,13.4,5.6,17.3,11.8c1.5,2.3,2,6.9,0.7,8.9
	C698.5,181.6,694.4,183.1,691.7,185z"/>
<path d="M690.5,849.2c-8.8-3.2-19.6-5.9-29.2-10.9c-9.5-4.9-18.3-11.5-26.2-18.6c-3.6-3.2-5.1-9.2-6.5-14.3
	c-0.9-3.4,3.2-5.5,6.4-3.9c8.7,4.3,17.5,8.5,26.2,12.7c8.3,3.9,16.5,8,24.9,11.5c6.7,2.8,13.8,4.7,20.6,7.3c1.7,0.7,4.4,2.6,4.2,3.6
	c-0.4,2.5-1.6,5.8-3.5,6.8C702.8,845.8,697.6,846.9,690.5,849.2z"/>
<path d="M204.3,689.2l7.1,3.1l0.4,1.7c-4.8,2-9.5,3.8-14.3,5.9c-9.6,4.1-19.2,8-28.6,12.4c-9.1,4.2-18.6,7.1-28.6,7
	c-2,0-4.7-3.6-5.8-6.1c-2.1-4.8-1.6-9.1,3.5-12.7c11.3-7.9,24.3-8.4,37.1-10.5c9.8-1.6,19.4-4.8,29.2-6.7c4.6-0.9,9.5-0.5,14.2-0.4
	c0.7,0,1.5,1.6,2.2,2.5c-0.9,0.7-1.7,1.8-2.6,2C213.9,688.2,209.8,688.5,204.3,689.2z"/>
</svg>
