<?xml version="1.0" encoding="utf-8"?>
<!-- Generator: Adobe Illustrator 26.0.1, SVG Export Plug-In . SVG Version: 6.00 Build 0)  -->
<svg version="1.1" id="Layer_1" xmlns="http://www.w3.org/2000/svg" xmlns:xlink="http://www.w3.org/1999/xlink" x="0px" y="0px"
	 viewBox="0 0 1000 1000" style="enable-background:new 0 0 1000 1000;" xml:space="preserve">
<style type="text/css">
	.st0{fill:#0274B2;}
	.st1{fill:#FEFEFE;}
</style>
<path class="st0" d="M75,499.7c0-120.1,0-240.1-0.1-360.2c0-16.2,4-30.8,14.9-43c12.5-14.1,28.3-21.3,47.1-21.3
	c241.6-0.1,483.3,0,724.9-0.2c32,0,63.6,24.3,63.2,62.1c0,0.9,0,2,0,2.9c0,239.9,0,479.6,0.1,719.5c0,16.2-4,30.9-14.6,43.2
	C898,917,882,924.7,862.9,924.7c-241,0.1-482.2-0.1-723.2,0.3c-33.4,0.1-65.2-25.5-64.7-64.8c0.5-52,0.1-104.2,0.1-156.4
	C75,635.7,75,567.7,75,499.7z M406.2,596.1c0,66.1,0,132.1-0.1,198.3c0,3.7,0.9,4.6,4.5,4.6c38.7-0.2,77.4-0.2,116.1,0
	c4,0,5-0.9,5-4.9c-0.2-66.1-0.2-132.1-0.1-198.3c0-19.6,1.5-39.1,8.3-57.8c6.5-17.8,17.6-31.3,35.6-38.3c11.7-4.6,24-5.6,36.5-5.4
	c26.1,0.5,45,14,53.7,38.5c6.5,18.5,7.7,37.8,7.7,57.1c0.1,68,0.1,136-0.1,204.1c0,3.8,0.7,5.1,4.8,5.1c38.9-0.2,77.9-0.2,116.8,0
	c3.7,0,4.8-0.7,4.8-4.7c-0.2-64-0.1-128-0.1-192c0-21.4,0.3-42.9-1.3-64.2c-1.9-26.3-5.7-52.1-15.6-76.8
	c-13.3-33-36.1-56.1-69.9-67.9c-22.4-7.7-45.4-10-68.9-9.5c-23.9,0.5-46.4,6-67.3,17.8c-19.5,11-35.5,25.7-46.6,45.2
	c-0.6,1-0.9,2.6-2.6,2.1c-1.7-0.5-0.9-2.1-0.9-3.2c-0.1-15.9-0.2-31.7,0.1-47.6c0.1-3.7-0.9-4.7-4.6-4.7c-37,0.2-74,0.2-111,0
	c-4.2,0-4.9,1.3-4.9,5.1C406.3,464.5,406.2,530.3,406.2,596.1z M201.2,596.2c0,66.2,0,132.4-0.1,198.6c0,3.3,0.9,4.1,4.1,4.1
	c39.1-0.1,78.1-0.1,117.3,0c3.5,0,4.3-0.9,4.3-4.3c-0.1-132.1-0.1-264.3,0-396.4c0-3.7-0.9-4.6-4.6-4.6c-38.8,0.2-77.6,0.2-116.4,0
	c-3.9,0-4.7,1.2-4.7,4.8C201.2,464.3,201.2,530.3,201.2,596.2z M191.2,264.8c-0.3,40.1,32.2,73.1,72.4,73.5
	c40.5,0.3,73.7-32.4,74.1-72.7c0.3-40.3-32.6-73.5-73-73.7C224.3,191.7,191.4,224.3,191.2,264.8z"/>
<path class="st1" d="M406.2,596.1c0-65.8,0-131.6-0.1-197.4c0-3.9,0.7-5.1,4.9-5.1c37,0.2,74,0.2,111,0c3.7,0,4.7,0.9,4.6,4.7
	c-0.2,15.8-0.1,31.7-0.1,47.6c0,1.1-0.8,2.7,0.9,3.2c1.7,0.5,2-1.1,2.6-2.1c11.2-19.6,27.1-34.3,46.6-45.2
	c20.8-11.7,43.4-17.3,67.3-17.8c23.5-0.5,46.6,1.8,68.9,9.5c33.8,11.7,56.7,34.9,69.9,67.9c9.9,24.7,13.7,50.5,15.6,76.8
	c1.5,21.3,1.3,42.8,1.3,64.2c0,64,0,128,0.1,192c0,3.9-1.2,4.7-4.8,4.7c-38.9-0.2-77.9-0.2-116.8,0c-4.2,0-4.8-1.3-4.8-5.1
	c0.1-68,0.2-136,0.1-204.1c0-19.3-1.1-38.6-7.7-57.1c-8.7-24.5-27.5-38-53.7-38.5c-12.4-0.3-24.7,0.8-36.5,5.4
	c-18,7.1-29.2,20.6-35.6,38.3c-6.8,18.7-8.2,38.2-8.3,57.8c-0.1,66.1-0.1,132.1,0.1,198.3c0,4.1-1,4.9-5,4.9
	c-38.7-0.2-77.4-0.2-116.1,0c-3.7,0-4.5-0.9-4.5-4.6C406.3,728.2,406.2,662.1,406.2,596.1z"/>
<path class="st1" d="M201.2,596.2c0-65.9,0-131.9-0.1-197.8c0-3.7,0.8-4.8,4.7-4.8c38.8,0.2,77.6,0.2,116.4,0c3.7,0,4.6,0.9,4.6,4.6
	c-0.1,132.1-0.1,264.3,0,396.4c0,3.5-0.9,4.3-4.3,4.3c-39.1-0.2-78.1-0.1-117.3,0c-3.2,0-4.1-0.8-4.1-4.1
	C201.2,728.5,201.2,662.4,201.2,596.2z"/>
<path class="st1" d="M191.2,264.8c0.3-40.6,33.1-73.2,73.3-73c40.5,0.3,73.4,33.4,73,73.7c-0.3,40.3-33.6,73-74.1,72.7
	C223.4,337.9,190.9,304.9,191.2,264.8z"/>
</svg>
