<?xml version="1.0" encoding="utf-8"?>
<!-- Generator: Adobe Illustrator 26.0.1, SVG Export Plug-In . SVG Version: 6.00 Build 0)  -->
<svg version="1.1" xmlns="http://www.w3.org/2000/svg" xmlns:xlink="http://www.w3.org/1999/xlink" x="0px" y="0px"
	 viewBox="0 0 1000 1000" style="enable-background:new 0 0 1000 1000;" xml:space="preserve">
<style type="text/css">
	.st0{fill:#E15830;}
	.st1{fill:#9E3226;}
	.st2{fill:#2A3641;}
	.st3{fill:#3E4B55;}
	.st4{fill:#988675;}
	.st5{fill:#F6DAC0;}
	.st6{fill:#3A4659;}
	.st7{fill:#B88782;}
	.st8{fill:#EFB39C;}
</style>
<g id="Layer_1">
	<g>
		<path class="st0" d="M202.74,197.69V21.06H33.16C14.85,21.06,0,35.27,0,52.81v161.96h184.91
			C194.76,214.77,202.74,207.12,202.74,197.69z"/>
		<g>
			<path class="st0" d="M721.9,729.63c-4.99-20.26-10.63-36.79-16.71-49.76L585.74,320.02l-47.4-142.82
				c-3.51-9.13-7.29-15.48-11.18-19.58C770.14,387.58,914.37,524.08,1000,605.12V52.81c0-17.53-14.84-31.75-33.15-31.75H202.74
				v176.63c0,9.43-7.98,17.08-17.83,17.08H0V947.2c0,17.53,14.85,31.75,33.16,31.75H721.9v-1.73V729.63z"/>
			<g>
				<path class="st1" d="M1000,947.19V605.12c-85.63-81.04-229.86-217.54-472.84-447.49c3.89,4.1,7.67,10.45,11.18,19.58
					l47.4,142.82l119.45,359.85c6.08,12.97,11.72,29.5,16.71,49.76v247.58v1.73h244.95C985.16,978.94,1000,964.73,1000,947.19z"/>
				<g>
					<g>
						<path class="st2" d="M538.34,177.2l47.4,142.82h-51.51c0,0-13.09-137.73-32.93-163.86c7.23-5.57,15.95-7.56,24.27,0
							c0.55,0.52,1.1,0.99,1.59,1.47C531.05,161.72,534.84,168.07,538.34,177.2z"/>
						<path class="st3" d="M534.23,320.02h-95.89l47.95-142.82c2.35-6.82,7.95-15.69,15.01-21.05
							C521.14,182.29,534.23,320.02,534.23,320.02z"/>
					</g>
					<g>
						<g>
							<path class="st4" d="M585.74,320.02l119.45,359.85c-34.08-72.58-82.25-33.96-107.02,77.74l-63.94-437.59H585.74z"/>
							<path class="st5" d="M534.23,320.02l63.94,437.59c-49.32-183.7-147.07-116.31-175.34,0
								C374.94,576.74,332.75,642.51,312.7,694l125.64-373.97h95.89V320.02z"/>
						</g>
						<g>
							<path class="st6" d="M721.9,730.08v248.87H598.18c0,0,0-90.59,0-220.74c24.77-112.27,72.93-151.1,107.02-78.14
								C711.27,693.1,716.91,709.71,721.9,730.08z"/>
							<path class="st7" d="M598.18,758.2c0,130.16,0,220.75,0,220.75H422.83c0,0,0-10.55,0-220.75
								C451.11,641.28,548.86,573.54,598.18,758.2z"/>
							<path class="st8" d="M422.83,758.21c0,210.18,0,220.73,0,220.73H300.42V732.73c0,0,4.33-17.67,12.06-37.72l0.22-0.74
								C332.75,642.53,374.94,576.42,422.83,758.21z"/>
						</g>
					</g>
				</g>
			</g>
		</g>
		<g>
			<polygon class="st0" points="115.52,41.61 74.89,41.61 135.62,173.7 173.97,173.7 			"/>
			<polygon class="st0" points="28.77,131.28 66.67,48.61 83.11,76.6 83.11,90.6 66.67,131.28 			"/>
			<polygon class="st0" points="67.01,173.7 113.24,143.42 28.77,143.42 47.83,173.7 			"/>
		</g>
	</g>
</g>
<g id="Layer_2">
	<path class="st0" d="M61.03,21.06h129.78c33.71,0,61.03,27.33,61.03,61.03v88.89c0,33.71-27.33,61.03-61.03,61.03H61.03
		C27.33,232.02,0,204.69,0,170.98V82.09C0,48.39,27.33,21.06,61.03,21.06z"/>
</g>
</svg>
