<?xml version="1.0" encoding="utf-8"?>
<!-- Generator: Adobe Illustrator 26.0.1, SVG Export Plug-In . SVG Version: 6.00 Build 0)  -->
<svg version="1.1" id="Layer_1" xmlns="http://www.w3.org/2000/svg" xmlns:xlink="http://www.w3.org/1999/xlink" x="0px" y="0px"
	 viewBox="0 0 1000 1000" style="enable-background:new 0 0 1000 1000;" xml:space="preserve">
<style type="text/css">
	.st0{fill:#FFFFFF;}
</style>
<circle cx="500" cy="500" r="500"/>
<path class="st0" d="M300.3,246.9l-7.6-13h96.1l7.9,13H300.3z M389.6,362.6c-8.4-7.1-17.4-13.3-27-18.6c-7.9-4.3-16.2-7.8-24.8-10.5
	c-8.4-2.6-16.9-4.6-25.5-6.1l-5.4-27.9c4.4,2.2,9,3.8,13.8,4.9c5.1,1.1,10.3,1.7,15.6,1.6c5.5,0.1,11-0.7,16.2-2.5
	c4.1-1.4,7.8-3.8,10.6-7.1c2.5-3.1,3.9-7,3.8-11.1c0-4.8-1.5-8.5-4.5-11.2s-7.5-4-13.5-4c-2.9,0.1-5.8,0.9-8.3,2.4
	c-2.5,1.3-4.7,3-6.7,5l0.7-14.8c-2.9-4.4-6.8-8.1-11.2-10.8c-4.8-2.9-10.1-5.1-15.6-6.5h25.6c2.5,1.7,4.8,3.8,6.6,6.2
	c2.3,3,4.2,6.2,5.6,9.7c1.5,3.7,2.3,7.6,2.2,11.6c0,6.2-1.7,11.2-5,14.9c-3.3,3.7-8,5.6-13.9,5.6c-4.9,0.1-9.7-1.5-13.5-4.5
	c-3.7-3-5.6-7.4-5.6-13.3c-0.2-5.7,2.5-11.2,7.2-14.5c4.8-3.5,11.5-5.3,20.2-5.3c10,0,18.4,1.4,25.4,4.2c7,2.8,12.3,6.9,15.9,12.1
	c10.4,14.7,6.9,35.1-7.8,45.6c-2,1.4-4.2,2.6-6.5,3.6c-6.4,2.8-14.1,4.1-23.2,4.1c-2.8,0-5.7-0.2-8.5-0.7c-2.4-0.4-4.7-1.1-6.8-2.3
	l8.6-5.6c7.7,1.6,15.2,4.3,22.2,8c7.4,3.9,14.5,8.4,21.1,13.6c6.6,5.2,12.9,10.7,18.8,16.7L389.6,362.6z"/>
<path class="st0" d="M419.7,352.2l-14.8-6.5V264c-0.6-4.2-2-8.3-4-12c-1.9-3.4-4.7-5.1-8.3-5.1h-0.9l-7.6-13h6.5
	c2.9-0.1,5.7,0.8,8.1,2.4c2.5,1.9,4.5,4.5,5.8,7.5c1.8,4.1,3,8.4,3.6,12.8l-1.8,0.5c-0.5-4.2-0.8-8.5-1.1-12.9s-0.3-7.5-0.3-9.2
	v-16.9l1.3-0.5l12.2,6.5l1.3,9.9h14.4l7.6,13h-20.7v104.9L419.7,352.2z"/>
<path class="st0" d="M537.7,352.2l-14.6-6.5v-49.9l1.1,8.6c-1.4-3.3-2.8-6.1-4-8.3c-0.9-1.8-2.1-3.4-3.5-4.9c-1.1-1-2.5-1.6-4-1.6
	c-1.5,0-2.9,0.6-4,1.5c-1.7,1.5-3.2,3.3-4.3,5.3c-1.6,2.5-3.7,6.1-6.2,10.8c-2.2,4.2-4.7,8.3-7.5,12.1c-2.1,2.9-4.7,5.4-7.7,7.3
	c-2.9,1.7-6.1,2.5-9.5,2.4c-4.4,0-8.7-1.4-12.2-4.1c-4-3.1-7.4-7-10.1-11.3c-3.3-5.2-6.1-10.7-8.5-16.4l8.8-4.7
	c1.5,2.7,3.2,5.3,5.2,7.7c1.3,1.6,2.9,2.8,4.7,3.7c1.6,0.7,3.3,1,5,1c2.7,0,5.2-1,7.1-2.9c2.5-2.4,4.6-5.2,6.2-8.3
	c2-3.6,4.2-7.9,6.5-12.8c1.7-3.7,3.9-7.1,6.5-10.3c1.6-2,3.6-3.5,5.9-4.6c1.8-0.7,3.7-1.1,5.6-1.2c3.1,0,6.1,1.1,8.5,3
	c3,2.6,5.5,5.7,7.3,9.2c2.9,5.3,5.4,10.7,7.7,16.3l-2.9,0.2c-0.4-3.5-0.6-6.9-0.8-10.4c-0.2-3.4-0.3-6.9-0.4-10.4
	c-0.1-3.5-0.2-6.8-0.2-10.1v-16h-67.1l-3.1-4.5c6.1,0.8,12.1,2.4,17.9,4.6c4.5,1.7,8.5,4.4,11.8,7.9c3.1,3.5,5.4,7.6,6.7,12
	c1.5,5.4,2.4,11,2.5,16.7l-6.1,9.7c-0.1-4.9-1-9.7-2.7-14.3c-1.3-3.5-3.5-6.6-6.2-9.1c-2.5-2.3-5.6-3.9-8.8-4.9
	c-3.4-1-7-1.5-10.5-1.4c-1.9,0-3.7,0.1-5.6,0.3c-1.7,0.2-3.1,0.4-4.3,0.6L429,233.9h123.1l7.7,13h-20.7v104.9L537.7,352.2z"/>
<path class="st0" d="M582.7,352.2l-14.7-6.5V264c-0.6-4.2-2-8.3-4-12c-1.9-3.4-4.7-5.1-8.3-5.1h-0.9l-7.6-13h6.5
	c2.9-0.1,5.7,0.8,8.1,2.4c2.5,1.9,4.5,4.5,5.8,7.5c1.8,4.1,3,8.4,3.6,12.8l-1.8,0.5c-0.5-4.2-0.8-8.5-1.1-12.9
	c-0.2-4.4-0.3-7.5-0.3-9.2v-16.9l1.3-0.5l12.2,6.5l1.3,9.9h14.4l7.6,13H584v104.9L582.7,352.2z"/>
<path class="st0" d="M684.4,350.6l-11.3-8.3c-0.5-4.2-1.3-8.4-2.3-12.6c-1.1-4.5-2.5-8.9-4.2-13.1c-1.6-4.1-3.7-8.1-6.1-11.8
	c-2.1-3.3-4.8-6.2-8-8.5c-2.9-2.1-6.5-3.2-10.1-3.1c-1.5,0-3,0.2-4.5,0.5c-1.3,0.3-2.6,0.8-3.8,1.4l5.6-11.7c2,1.2,3.5,3.1,4.4,5.2
	c0.9,2.2,1.4,4.5,1.3,6.8c0,3.3-0.7,6.6-2.2,9.5c-1.5,2.9-3.7,5.3-6.6,6.9c-3.3,1.8-7.1,2.7-10.9,2.6c-7.1,0-12.6-2.2-16.7-6.6
	s-6-9.9-6-16.5c0-7.6,2.4-13.4,7.1-17.5c4.7-4.1,10.8-6.1,18.1-6.1c5-0.1,10,0.9,14.7,2.8c4.4,1.8,8.5,4.4,12.1,7.6
	c3.6,3.3,6.8,7,9.4,11.2c2.6,4.2,4.8,8.6,6.6,13.1c1.7,4.4,3,9,3.9,13.7l-3,1.6c-0.2-2.5-0.5-5.9-0.8-10.3s-0.6-8.9-0.8-13.7
	c-0.2-4.8-0.4-9.1-0.4-12.8v-34.3h-70.2l-7.6-13h107.1l7.4,13h-20.7v103.3L684.4,350.6z"/>
<path class="st0" d="M319.1,566.6l-11.3-8.3c-0.5-4.2-1.3-8.4-2.3-12.6c-1.1-4.5-2.5-8.9-4.2-13.1c-1.6-4.1-3.7-8.1-6.1-11.8
	c-2.1-3.3-4.8-6.2-8-8.5c-3-2.1-6.5-3.2-10.1-3.1c-1.5,0-3,0.2-4.5,0.5c-1.3,0.3-2.6,0.8-3.8,1.4l5.6-11.7c2,1.2,3.5,3.1,4.4,5.2
	c0.9,2.2,1.4,4.5,1.4,6.8c0,3.3-0.7,6.6-2.2,9.5c-1.5,2.9-3.7,5.3-6.6,6.9c-3.3,1.8-7.1,2.7-10.9,2.6c-7.1,0-12.6-2.2-16.6-6.6
	s-6-9.9-6-16.5c0-7.6,2.4-13.4,7.1-17.5c4.7-4.1,10.8-6.1,18.1-6.1c5.1-0.1,10.1,0.9,14.8,2.8c4.4,1.9,8.5,4.4,12.1,7.6
	c3.6,3.3,6.8,7,9.4,11.2c2.6,4.2,4.8,8.6,6.6,13.1c1.7,4.4,3,9,3.9,13.7l-3.1,1.6c-0.2-2.5-0.5-5.9-0.8-10.3s-0.6-8.9-0.8-13.7
	c-0.2-4.8-0.4-9.1-0.4-12.8v-34.3h-70.2l-7.6-13h107.1l7.4,13h-20.7v103.3L319.1,566.6z"/>
<path class="st0" d="M364.1,568.2l-14.8-6.5V480c-0.6-4.2-2-8.3-4-12c-1.9-3.4-4.7-5.1-8.3-5.1h-0.9l-7.6-13h6.5
	c2.9-0.1,5.7,0.8,8.1,2.4c2.5,1.9,4.5,4.5,5.8,7.5c1.8,4.1,3,8.4,3.6,12.8l-1.8,0.5c-0.5-4.2-0.8-8.5-1.1-12.9s-0.4-7.5-0.4-9.3
	v-16.9l1.3-0.5l12.3,6.5l1.3,9.9h14.4l7.6,13h-20.7v104.9L364.1,568.2z"/>
<path class="st0" d="M409,568.2l-14.8-6.5v-98.8H381l-7.6-13h20.2c-2.7-2.5-5.5-5.2-8.4-8.2s-5.7-5.9-8.4-8.9
	c3.3-7.3,8-13.8,13.8-19.4c5.8-5.5,12.5-10,19.9-13c7.3-3.1,15.2-4.7,23.2-4.7c6.7,0,13.4,1.1,19.8,3.3c6.5,2.3,12.8,5.3,18.6,9
	c5.9,3.8,11.5,8,16.8,12.6c5,4.3,9.6,9,14,14l-7.2,6.5c-6.2-5.8-12.9-10.9-20-15.5c-5.8-3.7-12-6.6-18.5-8.7
	c-5.8-1.8-11.8-2.8-17.8-2.8c-5.8,0-11.5,1.1-16.7,3.4c-5,2.1-9.7,5.1-13.8,8.7c-3.6,3.2-6.5,7.1-8.5,11.4c0.8,1.3,1.7,2.7,2.5,4
	c0.8,1.4,1.7,2.7,2.6,4.1c0.9,1.4,1.8,2.7,2.8,4h15.1l7.7,13h-20.9v104.9L409,568.2z"/>
<path class="st0" d="M425.9,462.9l-7.6-13h96.1l7.9,13H425.9z M515.2,578.6c-8.4-7.1-17.4-13.3-27-18.6c-7.9-4.3-16.2-7.8-24.8-10.5
	c-8.4-2.6-16.9-4.6-25.5-6.1l-5.4-27.9c4.4,2.2,9,3.8,13.8,4.9c5.1,1.1,10.3,1.7,15.6,1.6c5.5,0.1,11-0.7,16.2-2.5
	c4.1-1.4,7.8-3.8,10.6-7.1c2.5-3.1,3.9-7,3.8-11.1c0-4.8-1.5-8.5-4.5-11.2c-3-2.6-7.5-4-13.5-4c-2.9,0.1-5.8,0.9-8.3,2.4
	c-2.5,1.3-4.7,3-6.7,5l0.7-14.8c-2.9-4.4-6.8-8.1-11.3-10.8c-4.8-2.9-10.1-5.1-15.6-6.5H459c2.5,1.7,4.8,3.8,6.6,6.2
	c2.3,3,4.2,6.2,5.6,9.7c1.5,3.7,2.3,7.6,2.2,11.6c0,6.2-1.7,11.2-5,14.9c-3.3,3.7-8,5.6-13.9,5.6c-4.9,0.1-9.7-1.5-13.5-4.5
	c-3.7-3-5.6-7.4-5.6-13.3c-0.2-5.7,2.5-11.2,7.2-14.5c4.8-3.5,11.5-5.3,20.2-5.3c10,0,18.4,1.4,25.4,4.2s12.3,6.9,15.9,12.1
	c10.4,14.7,6.9,35.1-7.8,45.6c-2,1.4-4.2,2.6-6.5,3.6c-6.4,2.8-14.1,4.1-23.2,4.1c-2.8,0-5.7-0.2-8.5-0.7c-2.4-0.4-4.7-1.1-6.8-2.3
	l8.6-5.6c7.7,1.6,15.2,4.3,22.2,8c7.4,3.9,14.5,8.4,21.1,13.6c6.6,5.2,12.9,10.8,18.8,16.7L515.2,578.6z"/>
<path class="st0" d="M603.7,566.2l-12.6-7.7c-4-5.9-8.9-11-14.6-15.2c-5.8-4.2-12.2-7.6-19-9.9c-7.3-2.5-14.9-4.2-22.5-5.1
	l-10.8-24.8c2-1.4,4.6-3.1,7.6-5c3-1.9,6.2-3.7,9.6-5.6s6.7-3.6,9.9-5.1s6-2.8,8.5-3.8l1.3,6.8c-2.9-2.5-6.2-4.6-9.7-6.1
	c-3.9-1.7-7.9-3.2-12.1-4.2c-4.6-1.2-9.2-2-13.9-2.4l-15.7-28.1h108.4l7.7,13h-20.7v103L603.7,566.2z M589.1,548.2v-85.3H535l0.2-4
	c6.9,3,13.6,6.6,19.8,10.9c5.4,3.7,10.2,8,14.6,12.9c4.2,4.8,7.9,10,10.9,15.7c-4.1,2-8.3,4.3-12.8,6.8c-4.4,2.5-8.7,5-12.9,7.6
	c-4.1,2.6-7.9,5.1-11.2,7.7l-2.5-10.4c6.1,1.7,12.1,3.7,17.9,6c6.4,2.6,12.4,6,17.8,10.3c6.1,4.8,11.1,10.9,14.8,17.7L589.1,548.2z
	 M561.2,567.6c-3.6,0.1-7-1.2-9.6-3.6c-2.7-2.5-4.2-6-4-9.6c-0.2-3.7,1.3-7.3,4-9.8c2.6-2.4,6.1-3.7,9.6-3.7c3.5-0.1,7,1.3,9.5,3.7
	c2.7,2.5,4.1,6.1,4,9.8c0.2,3.7-1.3,7.2-4,9.7C568.1,566.4,564.7,567.7,561.2,567.6z"/>
<path class="st0" d="M648.7,568.2l-14.7-6.5V480c-0.6-4.2-2-8.3-4-12c-1.9-3.4-4.7-5.1-8.3-5.1h-0.9l-7.6-13h6.5
	c2.9-0.1,5.7,0.8,8.1,2.4c2.5,1.9,4.5,4.5,5.8,7.5c1.8,4.1,3,8.4,3.6,12.8l-1.8,0.5c-0.5-4.2-0.8-8.5-1.1-12.9
	c-0.2-4.4-0.3-7.5-0.3-9.2v-16.9l1.3-0.5l12.2,6.5l1.3,9.9h14.4l7.6,13H650v104.9L648.7,568.2z"/>
<path class="st0" d="M750.4,566.6l-11.3-8.3c-0.5-4.2-1.3-8.4-2.3-12.6c-1.1-4.5-2.5-8.9-4.2-13.1c-1.6-4.1-3.7-8.1-6.1-11.8
	c-2.1-3.3-4.8-6.2-8-8.5c-2.9-2.1-6.5-3.2-10.1-3.1c-1.5,0-3,0.2-4.5,0.5c-1.3,0.3-2.6,0.8-3.8,1.4l5.6-11.7c2,1.2,3.5,3.1,4.4,5.2
	c0.9,2.2,1.4,4.5,1.3,6.8c0,3.3-0.7,6.6-2.2,9.5c-1.5,2.9-3.7,5.3-6.6,6.9c-3.3,1.8-7.1,2.7-10.9,2.6c-7.1,0-12.6-2.2-16.7-6.6
	s-6-9.9-6-16.5c0-7.6,2.4-13.4,7.1-17.5s10.8-6.1,18.1-6.1c5-0.1,10,0.9,14.7,2.8c4.4,1.8,8.5,4.4,12.1,7.6c3.6,3.3,6.8,7,9.4,11.2
	c2.6,4.2,4.8,8.6,6.6,13.1c1.7,4.4,3,9,3.9,13.7l-3.1,1.6c-0.2-2.5-0.5-5.9-0.8-10.3s-0.6-8.9-0.8-13.7c-0.2-4.8-0.4-9.1-0.4-12.8
	v-34.3h-70.2l-7.6-13h107.1l7.4,13h-20.7v103.3L750.4,566.6z"/>
<path class="st0" d="M297.5,782.6c-7.5,0-14.9-2.2-21.1-6.4c-6.7-4.3-12-10.7-16.1-19.4s-6.1-19.6-6.1-32.7
	c-0.1-7.8,1.3-15.5,4-22.8c2.6-6.8,6.3-13,11-18.5c4.4-5.2,9.8-9.4,15.8-12.4c5.8-2.9,12.2-4.4,18.6-4.4h15.5l7.4,13h-8.1
	c-5.7,0-11.2,1.4-16.3,4c-5.5,2.7-10.4,6.5-14.4,11.1c-9.1,10.2-14.1,23.5-14,37.2c-0.1,6.5,0.6,13.1,2.1,19.4
	c1.1,5.2,3.5,10.1,6.8,14.3c3.4,3.9,7.9,6.7,12.9,8l-5.2,2.5c-1.6-1.6-2.9-3.6-3.9-5.7c-1.1-2.5-1.6-5.3-1.5-8
	c-0.1-4.1,1.5-8,4.5-10.8c3.1-3,7.3-4.6,11.6-4.4c5.6,0,9.9,1.7,12.7,5.1c2.8,3.4,4.3,7.6,4.2,12c0,5.9-1.8,10.5-5.4,13.9
	S303.9,782.6,297.5,782.6z"/>
<path class="st0" d="M406.2,782.6l-11.3-8.3c-0.5-4.2-1.3-8.4-2.3-12.6c-1.1-4.5-2.5-8.9-4.2-13.1c-1.6-4.1-3.7-8.1-6.1-11.8
	c-2.1-3.3-4.8-6.2-8-8.5c-2.9-2.1-6.5-3.2-10.1-3.2c-1.5,0-3,0.2-4.5,0.5c-1.3,0.3-2.6,0.8-3.8,1.4l5.6-11.7c2,1.2,3.5,3.1,4.4,5.2
	c0.9,2.2,1.4,4.5,1.4,6.8c0,3.3-0.7,6.6-2.2,9.5c-1.5,2.9-3.7,5.3-6.6,6.9c-3.3,1.8-7.1,2.7-10.9,2.6c-7.1,0-12.6-2.2-16.6-6.6
	c-4-4.4-6-9.9-6-16.5c0-7.6,2.4-13.4,7.1-17.5c4.7-4.1,10.8-6.1,18.1-6.1c5.1-0.1,10.1,0.9,14.8,2.8c4.4,1.8,8.5,4.4,12.1,7.7
	c3.6,3.3,6.8,7,9.4,11.2c2.6,4.2,4.8,8.6,6.6,13.1c1.7,4.4,3,9,3.9,13.7l-3.1,1.7c-0.2-2.5-0.5-5.9-0.8-10.3
	c-0.3-4.3-0.6-8.9-0.8-13.7c-0.2-4.8-0.4-9.1-0.4-12.8v-34.3h-70.2l-7.6-13H421l7.4,13h-20.7v103.3L406.2,782.6z"/>
<path class="st0" d="M451.2,784.2l-14.8-6.5V696c-0.6-4.2-2-8.3-4-12c-1.9-3.4-4.7-5.1-8.3-5.1h-0.9l-7.6-13h6.5
	c2.9-0.1,5.7,0.8,8.1,2.4c2.5,1.9,4.5,4.5,5.8,7.5c1.8,4.1,3,8.4,3.6,12.8l-1.8,0.5c-0.5-4.2-0.8-8.5-1.1-12.9s-0.4-7.5-0.4-9.3
	v-16.9l1.3-0.5L450,656l1.3,9.9h14.4l7.6,13h-20.7v104.9L451.2,784.2z"/>
<path class="st0" d="M518.4,782.6c-7.7,0-15.3-2.3-21.6-6.8c-6.6-4.5-11.9-11-15.9-19.4c-4-8.5-6-18.6-6-30.5
	c-0.1-8,1.1-15.9,3.8-23.5c2.3-6.3,5.5-12.2,9.7-17.5c3.5-4.4,7.7-8.2,12.4-11.2l8.1,5.2H468l-7.4-13h79.2l7.4,13h-8.8
	c-5.4,0.1-10.7,1.4-15.5,4c-5.4,2.8-10.2,6.6-14.2,11.1c-4.4,5-7.9,10.7-10.4,16.9c-2.6,6.8-3.9,14-3.9,21.2
	c-0.1,6.2,0.6,12.4,2.1,18.5c1.2,5.2,3.5,10,6.8,14.1c3.4,4,7.9,6.8,12.9,8.1l-5.2,2.5c-1.6-1.6-2.9-3.6-3.9-5.7
	c-1.1-2.5-1.6-5.3-1.5-8c-0.1-4.1,1.5-8,4.5-10.8c3.1-2.9,7.3-4.5,11.5-4.3c5.6,0,9.9,1.7,12.7,5.1c2.8,3.4,4.3,7.6,4.2,12
	c0,6-1.8,10.7-5.3,14C529.7,781,524.7,782.7,518.4,782.6z"/>
<path class="st0" d="M614.5,782.2l-12.4-7.7c-4.1-6.4-9.3-12-15.2-16.7c-5.9-4.6-12.4-8.3-19.3-11c-7.5-2.9-15.3-4.7-23.2-5.6
	l-9.9-26.5c6.8-4.4,13.9-8.5,21.1-12.2c7.3-3.8,14.8-7.1,22.4-10.1c7.8-3,15.8-5.6,23.8-7.7l-1.8,8.5v-14.2h-66.4l-7.6-13h103.1
	l7.7,13h-20.7v103L614.5,782.2z M599.9,763.3v-61.4l3.1,6.3c-4.7,1.4-9.6,3.2-14.8,5.3c-5.2,2.1-10.2,4.4-15.1,7
	c-4.9,2.6-9.5,5.2-13.9,8l-1.4-4.1c5.6,1.5,11.1,3.6,16.2,6.3c5.7,3,11,6.8,15.7,11.3c5.2,5.1,9.5,11,12.8,17.5L599.9,763.3z"/>
<path class="st0" d="M737.3,784.2l-14.8-6.5v-50.2L724,739c-2-8.5-4.5-14.4-7.4-17.6c-2.9-3.2-6.1-4.9-9.6-4.9c-3,0-5.8,1.5-7.4,4
	c-1.9,2.7-2.8,6.9-2.7,12.5l-5.6-1.6c-2.2-5.8-5.4-10-9.6-12.7c-4.4-2.7-9.5-4.1-14.7-4c-6,0-10.6,1.5-13.8,4.5
	c-3.2,3-4.8,7.1-4.8,12.4c-0.1,2.6,0.4,5.2,1.3,7.6c0.8,2,2,3.7,3.7,5c1.5,1.2,3.3,1.8,5.2,1.8c1,0,2-0.1,3.1-0.2l3.1-0.4l-7.6,6.3
	c-1-1.3-1.8-2.8-2.2-4.3c-0.6-1.7-0.8-3.6-0.8-5.4c0-4.4,1.3-8,4-10.6c2.6-2.6,6.3-4.1,10-4c4.9,0,8.8,1.5,11.6,4.6
	c2.8,3.1,4.2,7.1,4.2,12c0,5.4-1.7,9.6-5,12.6c-3.3,3-7.8,4.5-13.6,4.5c-12.3,0.2-23.6-6.7-28.9-17.8c-2.8-5.6-4.2-12.3-4.2-20
	c0-10.4,2.7-18.5,8-24.3c5.1-5.7,12.4-8.8,20.1-8.6c9.5-0.3,18.4,4.4,23.6,12.3c2.5,3.9,4.3,8.2,5.2,12.7l-3.1,0.7
	c-0.5-7.8,0.8-13.9,3.8-18.3s6.7-6.6,11-6.6c3.7,0,7.2,1.4,9.9,3.8c3.4,3,6.2,6.7,8.2,10.8c2.8,5.4,5.1,11.1,6.9,16.9l-1.3,0.7
	c-0.6-4.6-1.1-8.9-1.6-13c-0.5-4.6-0.7-9.3-0.7-14v-17.6h-90.7l-7.6-13h127.3l7.9,13h-20.7v104.9L737.3,784.2z"/>
</svg>
