<?xml version="1.0" encoding="utf-8"?>
<!-- Generator: Adobe Illustrator 27.0.0, SVG Export Plug-In . SVG Version: 6.00 Build 0)  -->
<svg version="1.1" id="Layer_1" xmlns="http://www.w3.org/2000/svg" xmlns:xlink="http://www.w3.org/1999/xlink" x="0px" y="0px"
	 viewBox="0 0 100 100" style="enable-background:new 0 0 100 100;" xml:space="preserve">
<style type="text/css">
	.st0{fill:#1A1A1A;}
</style>
<path class="st0" d="M10,90c-2.8,0-5.1-1-7.1-2.9S0,82.8,0,80V20c0-2.8,1-5.1,2.9-7.1S7.2,10,10,10h80c2.8,0,5.1,1,7.1,2.9
	s2.9,4.3,2.9,7.1v60c0,2.8-1,5.1-2.9,7.1S92.8,90,90,90H10z M50,54.1c0.4,0,0.9-0.1,1.3-0.2s0.9-0.3,1.3-0.6L88,31.2
	c0.7-0.4,1.2-0.9,1.5-1.6s0.5-1.3,0.5-2.1c0-1.7-0.7-2.9-2.1-3.8S85,23.1,83.5,24L50,45L16.5,24c-1.5-0.9-3-0.9-4.4-0.1
	S10,26,10,27.6c0,0.8,0.2,1.6,0.5,2.2s0.8,1.1,1.5,1.4l35.4,22.1c0.4,0.2,0.9,0.4,1.3,0.6S49.6,54.1,50,54.1z"/>
</svg>
